# xmcd CD database file
#
# Track frame offsets:
#	182
#	44242
#	115985
#	183777
#	217630
#	274290
#
# Disc length: 4209 seconds
#
# Revision: 0
# Processed by: cddbd v1.5.2PL0 Copyright (c) Steve Scherf et al.
# Submitted via: CDex 1.70beta2
#
DISCID=54106f06
DTITLE=Joey Sellers' Jazz Aggregation - Pastels, Ashes
DYEAR=1993
DGENRE=Jazz
TTITLE0=Ximeno, 735
TTITLE1=Pastels, Ashes
TTITLE2=Cobalt 23
TTITLE3=Marie
TTITLE4=E.E.
TTITLE5=As It Were
EXTD=YEAR: 1993
EXTT0=
EXTT1=
EXTT2=
EXTT3=
EXTT4=
EXTT5=
PLAYORDER=
